{
    "asset": {
        "version": "2.0",
        "generator": "Open Asset Import Library (assimp v3.1.118612264)"
    },
    "accessors": [
        {
            "bufferView": 0,
            "byteOffset": 0,
            "componentType": 5126,
            "count": 46,
            "type": "VEC3",
            "max": [
                0.23776446282863618,
                0.25,
                0.2499999850988388
            ],
            "min": [
                -0.23776446282863618,
                -0.25,
                -0.2499999850988388
            ]
        },
        {
            "bufferView": 1,
            "byteOffset": 0,
            "componentType": 5126,
            "count": 46,
            "type": "VEC3",
            "max": [
                0.9510656595230103,
                1.0,
                1.0
            ],
            "min": [
                -0.9510656595230103,
                -1.0,
                -1.0
            ]
        },
        {
            "bufferView": 2,
            "byteOffset": 0,
            "componentType": 5126,
            "count": 46,
            "type": "VEC4",
            "max": [
                1.0,
                1.0,
                1.0,
                1.0
            ],
            "min": [
                -0.988919734954834,
                -0.8218733668327332,
                -0.9232752919197083,
                -0.988919734954834
            ]
        },
        {
            "bufferView": 3,
            "byteOffset": 0,
            "componentType": 5126,
            "count": 46,
            "type": "VEC2",
            "max": [
                0.8908268213272095,
                0.9989999532699585
            ],
            "min": [
                0.0010000169277191163,
                0.0009999871253967286
            ]
        },
        {
            "bufferView": 4,
            "byteOffset": 0,
            "componentType": 5123,
            "count": 240,
            "type": "SCALAR",
            "max": [
                45.0
            ],
            "min": [
                0.0
            ]
        }
    ],
    "buffers": [
        {
            "byteLength": 2688,
            "uri": "eye.bin"
        }
    ],
    "bufferViews": [
        {
            "buffer": 0,
            "byteOffset": 0,
            "byteLength": 552,
            "target": 34962
        },
        {
            "buffer": 0,
            "byteOffset": 552,
            "byteLength": 552,
            "target": 34962
        },
        {
            "buffer": 0,
            "byteOffset": 1104,
            "byteLength": 736,
            "target": 34962
        },
        {
            "buffer": 0,
            "byteOffset": 1840,
            "byteLength": 368,
            "target": 34962
        },
        {
            "buffer": 0,
            "byteOffset": 2208,
            "byteLength": 480,
            "target": 34963
        }
    ],
    "materials": [
        {
            "name": "DefaultMaterial"
        }
    ],
    "meshes": [
        {
            "name": "Icosphere",
            "primitives": [
                {
                    "mode": 4,
                    "material": 0,
                    "indices": 4,
                    "attributes": {
                        "POSITION": 0,
                        "NORMAL": 1,
                        "TANGENT": 2,
                        "TEXCOORD_0": 3
                    }
                }
            ]
        }
    ],
    "nodes": [
        {
            "name": "Icosphere",
            "mesh": 0
        }
    ],
    "scenes": [
        {
            "nodes": [
                0
            ]
        }
    ],
    "scene": 0
}