{
    "asset": {
        "version": "2.0",
        "generator": "Open Asset Import Library (assimp v3.1.118612264)"
    },
    "accessors": [
        {
            "bufferView": 0,
            "byteOffset": 0,
            "componentType": 5126,
            "count": 259,
            "type": "VEC3",
            "max": [
                0.5,
                0.7698516845703125,
                0.5
            ],
            "min": [
                -0.5,
                -0.9000000357627869,
                -0.5
            ]
        },
        {
            "bufferView": 1,
            "byteOffset": 0,
            "componentType": 5126,
            "count": 259,
            "type": "VEC3",
            "max": [
                1.0,
                1.0,
                1.0
            ],
            "min": [
                -1.0,
                -1.0,
                -1.0
            ]
        },
        {
            "bufferView": 2,
            "byteOffset": 0,
            "componentType": 5126,
            "count": 259,
            "type": "VEC4",
            "max": [
                1.0,
                1.0,
                1.0,
                1.0
            ],
            "min": [
                -1.0,
                -1.0,
                -1.0,
                -1.0
            ]
        },
        {
            "bufferView": 3,
            "byteOffset": 0,
            "componentType": 5126,
            "count": 259,
            "type": "VEC2",
            "max": [
                0.9990000128746033,
                0.9990000128746033
            ],
            "min": [
                0.0009999945759773255,
                0.05548107624053955
            ]
        },
        {
            "bufferView": 4,
            "byteOffset": 0,
            "componentType": 5123,
            "count": 576,
            "type": "SCALAR",
            "max": [
                258.0
            ],
            "min": [
                0.0
            ]
        }
    ],
    "buffers": [
        {
            "byteLength": 13584,
            "uri": "mailbox.bin"
        }
    ],
    "bufferViews": [
        {
            "buffer": 0,
            "byteOffset": 0,
            "byteLength": 3108,
            "target": 34962
        },
        {
            "buffer": 0,
            "byteOffset": 3108,
            "byteLength": 3108,
            "target": 34962
        },
        {
            "buffer": 0,
            "byteOffset": 6216,
            "byteLength": 4144,
            "target": 34962
        },
        {
            "buffer": 0,
            "byteOffset": 10360,
            "byteLength": 2072,
            "target": 34962
        },
        {
            "buffer": 0,
            "byteOffset": 12432,
            "byteLength": 1152,
            "target": 34963
        }
    ],
    "materials": [
        {
            "name": "DefaultMaterial"
        }
    ],
    "meshes": [
        {
            "name": "Cube.001",
            "primitives": [
                {
                    "mode": 4,
                    "material": 0,
                    "indices": 4,
                    "attributes": {
                        "POSITION": 0,
                        "NORMAL": 1,
                        "TANGENT": 2,
                        "TEXCOORD_0": 3
                    }
                }
            ]
        }
    ],
    "nodes": [
        {
            "name": "Cube",
            "matrix": [
                1.0,
                0.0,
                0.0,
                0.0,
                0.0,
                1.0,
                0.0,
                0.0,
                0.0,
                0.0,
                1.0,
                0.0,
                0.0,
                0.8999999761581421,
                0.0,
                1.0
            ],
            "mesh": 0
        }
    ],
    "scenes": [
        {
            "nodes": [
                0
            ]
        }
    ],
    "scene": 0
}