{
    "asset": {
        "version": "2.0",
        "generator": "Open Asset Import Library (assimp v3.1.118612264)"
    },
    "accessors": [
        {
            "bufferView": 0,
            "byteOffset": 0,
            "componentType": 5126,
            "count": 666,
            "type": "VEC3",
            "max": [
                0.2500000298023224,
                0.3800000250339508,
                0.3300257921218872
            ],
            "min": [
                -0.25693279504776,
                -0.12000000476837158,
                -0.3300257921218872
            ]
        },
        {
            "bufferView": 1,
            "byteOffset": 0,
            "componentType": 5126,
            "count": 666,
            "type": "VEC3",
            "max": [
                1.0,
                1.0,
                1.0
            ],
            "min": [
                -1.0,
                -1.0,
                -1.0
            ]
        },
        {
            "bufferView": 2,
            "byteOffset": 0,
            "componentType": 5126,
            "count": 666,
            "type": "VEC4",
            "max": [
                1.0,
                1.0,
                1.0,
                1.0
            ],
            "min": [
                -1.0,
                -1.0,
                -1.0,
                -1.0
            ]
        },
        {
            "bufferView": 3,
            "byteOffset": 0,
            "componentType": 5126,
            "count": 666,
            "type": "VEC2",
            "max": [
                0.9690138101577759,
                1.0
            ],
            "min": [
                -1.4797399416899283e-10,
                0.0
            ]
        },
        {
            "bufferView": 4,
            "byteOffset": 0,
            "componentType": 5123,
            "count": 1740,
            "type": "SCALAR",
            "max": [
                665.0
            ],
            "min": [
                0.0
            ]
        }
    ],
    "buffers": [
        {
            "byteLength": 35448,
            "uri": "phone.bin"
        }
    ],
    "bufferViews": [
        {
            "buffer": 0,
            "byteOffset": 0,
            "byteLength": 7992,
            "target": 34962
        },
        {
            "buffer": 0,
            "byteOffset": 7992,
            "byteLength": 7992,
            "target": 34962
        },
        {
            "buffer": 0,
            "byteOffset": 15984,
            "byteLength": 10656,
            "target": 34962
        },
        {
            "buffer": 0,
            "byteOffset": 26640,
            "byteLength": 5328,
            "target": 34962
        },
        {
            "buffer": 0,
            "byteOffset": 31968,
            "byteLength": 3480,
            "target": 34963
        }
    ],
    "materials": [
        {
            "name": "DefaultMaterial"
        }
    ],
    "meshes": [
        {
            "name": "Cube.002",
            "primitives": [
                {
                    "mode": 4,
                    "material": 0,
                    "indices": 4,
                    "attributes": {
                        "POSITION": 0,
                        "NORMAL": 1,
                        "TANGENT": 2,
                        "TEXCOORD_0": 3
                    }
                }
            ]
        }
    ],
    "nodes": [
        {
            "name": "phone",
            "matrix": [
                1.0,
                0.0,
                0.0,
                0.0,
                0.0,
                1.0,
                0.0,
                0.0,
                0.0,
                0.0,
                1.0,
                0.0,
                0.0,
                0.09999999403953552,
                0.0,
                1.0
            ],
            "mesh": 0
        }
    ],
    "scenes": [
        {
            "nodes": [
                0
            ]
        }
    ],
    "scene": 0
}